<mxfile host="app.diagrams.net" modified="2023-10-18T07:15:33.486Z" agent="Mozilla/5.0 (Macintosh; Intel Mac OS X 10_15_7) AppleWebKit/605.1.15 (KHTML, like Gecko) Version/15.5 Safari/605.1.15" etag="m78N6uLwy158qfv3Y0E9" version="22.0.4" type="google">
  <diagram name="Page-1" id="beZD7wqWVQxjQfumyW3a">
    <mxGraphModel grid="1" page="1" gridSize="10" guides="1" tooltips="1" connect="1" arrows="1" fold="1" pageScale="1" pageWidth="827" pageHeight="1169" math="0" shadow="0">
      <root>
        <mxCell id="0" />
        <mxCell id="1" parent="0" />
        <mxCell id="AeLRqA_ZkPdadpYVqA0--92" style="edgeStyle=orthogonalEdgeStyle;rounded=0;orthogonalLoop=1;jettySize=auto;html=1;exitX=1;exitY=0.5;exitDx=0;exitDy=0;" edge="1" parent="1" source="AeLRqA_ZkPdadpYVqA0--89" target="AeLRqA_ZkPdadpYVqA0--74">
          <mxGeometry relative="1" as="geometry" />
        </mxCell>
        <mxCell id="AeLRqA_ZkPdadpYVqA0--89" value="||" style="ellipse;whiteSpace=wrap;html=1;aspect=fixed;fillColor=#fff2cc;strokeColor=#d6b656;" vertex="1" parent="1">
          <mxGeometry x="437" y="300" width="20" height="20" as="geometry" />
        </mxCell>
        <mxCell id="AeLRqA_ZkPdadpYVqA0--29" value="" style="edgeStyle=orthogonalEdgeStyle;rounded=0;orthogonalLoop=1;jettySize=auto;html=1;" edge="1" parent="1" source="AeLRqA_ZkPdadpYVqA0--30" target="AeLRqA_ZkPdadpYVqA0--34">
          <mxGeometry relative="1" as="geometry" />
        </mxCell>
        <mxCell id="AeLRqA_ZkPdadpYVqA0--30" value="LSTM&lt;br&gt;h&lt;sup style=&quot;border-color: var(--border-color); text-align: start;&quot;&gt;1&lt;/sup&gt;&lt;sub style=&quot;border-color: var(--border-color); text-align: start;&quot;&gt;1&lt;/sub&gt;" style="rounded=0;whiteSpace=wrap;html=1;fillColor=#d5e8d4;strokeColor=#82b366;" vertex="1" parent="1">
          <mxGeometry x="190" y="270" width="40" height="80" as="geometry" />
        </mxCell>
        <mxCell id="AeLRqA_ZkPdadpYVqA0--97" style="edgeStyle=orthogonalEdgeStyle;rounded=0;orthogonalLoop=1;jettySize=auto;html=1;entryX=0;entryY=0.5;entryDx=0;entryDy=0;" edge="1" parent="1" target="AeLRqA_ZkPdadpYVqA0--30">
          <mxGeometry relative="1" as="geometry">
            <mxPoint x="130" y="310" as="sourcePoint" />
          </mxGeometry>
        </mxCell>
        <mxCell id="AeLRqA_ZkPdadpYVqA0--33" value="" style="edgeStyle=orthogonalEdgeStyle;rounded=0;orthogonalLoop=1;jettySize=auto;html=1;" edge="1" parent="1" source="AeLRqA_ZkPdadpYVqA0--34" target="AeLRqA_ZkPdadpYVqA0--43">
          <mxGeometry relative="1" as="geometry" />
        </mxCell>
        <mxCell id="AeLRqA_ZkPdadpYVqA0--34" value="Dense&lt;br&gt;d&lt;sup style=&quot;border-color: var(--border-color); text-align: start;&quot;&gt;1&lt;/sup&gt;&lt;sub style=&quot;border-color: var(--border-color); text-align: start;&quot;&gt;1&lt;/sub&gt;" style="rounded=0;whiteSpace=wrap;html=1;fillColor=#d5e8d4;strokeColor=#82b366;" vertex="1" parent="1">
          <mxGeometry x="260" y="270" width="40" height="80" as="geometry" />
        </mxCell>
        <mxCell id="AeLRqA_ZkPdadpYVqA0--40" value="Dense&lt;br&gt;y&lt;sub style=&quot;border-color: var(--border-color); text-align: start;&quot;&gt;1&lt;/sub&gt;=x&lt;sub style=&quot;border-color: var(--border-color); text-align: start;&quot;&gt;2&lt;/sub&gt;" style="rounded=0;whiteSpace=wrap;html=1;fillColor=#dae8fc;strokeColor=#6c8ebf;" vertex="1" parent="1">
          <mxGeometry x="367" y="270" width="40" height="80" as="geometry" />
        </mxCell>
        <mxCell id="AeLRqA_ZkPdadpYVqA0--91" style="edgeStyle=orthogonalEdgeStyle;rounded=0;orthogonalLoop=1;jettySize=auto;html=1;exitX=1;exitY=0.5;exitDx=0;exitDy=0;entryX=0;entryY=0.5;entryDx=0;entryDy=0;" edge="1" parent="1" target="AeLRqA_ZkPdadpYVqA0--89">
          <mxGeometry relative="1" as="geometry">
            <mxPoint x="407" y="310" as="sourcePoint" />
          </mxGeometry>
        </mxCell>
        <mxCell id="AeLRqA_ZkPdadpYVqA0--42" value="" style="endArrow=classic;html=1;rounded=0;exitX=0.5;exitY=0;exitDx=0;exitDy=0;" edge="1" parent="1" source="AeLRqA_ZkPdadpYVqA0--98">
          <mxGeometry width="50" height="50" relative="1" as="geometry">
            <mxPoint x="147" y="310" as="sourcePoint" />
            <mxPoint x="327" y="300" as="targetPoint" />
            <Array as="points">
              <mxPoint x="132" y="240" />
              <mxPoint x="210" y="240" />
              <mxPoint x="327" y="240" />
            </Array>
          </mxGeometry>
        </mxCell>
        <mxCell id="AeLRqA_ZkPdadpYVqA0--43" value="+" style="ellipse;whiteSpace=wrap;html=1;aspect=fixed;fillColor=#fff2cc;strokeColor=#d6b656;" vertex="1" parent="1">
          <mxGeometry x="317" y="300" width="20" height="20" as="geometry" />
        </mxCell>
        <mxCell id="AeLRqA_ZkPdadpYVqA0--44" style="edgeStyle=orthogonalEdgeStyle;rounded=0;orthogonalLoop=1;jettySize=auto;html=1;exitX=1;exitY=0.5;exitDx=0;exitDy=0;entryX=0;entryY=0.5;entryDx=0;entryDy=0;" edge="1" parent="1" target="AeLRqA_ZkPdadpYVqA0--40">
          <mxGeometry relative="1" as="geometry">
            <mxPoint x="337" y="310" as="sourcePoint" />
          </mxGeometry>
        </mxCell>
        <mxCell id="AeLRqA_ZkPdadpYVqA0--52" value="&lt;p style=&quot;margin: 0cm; text-align: start;&quot; class=&quot;MsoNormal&quot;&gt;&lt;b&gt;x&lt;/b&gt;&lt;sub&gt;1&lt;/sub&gt;&lt;sub style=&quot;font-family: Calibri, sans-serif;&quot;&gt;&lt;span lang=&quot;EN-US&quot;&gt;&lt;/span&gt;&lt;/sub&gt;&lt;/p&gt;" style="text;html=1;strokeColor=none;fillColor=none;align=center;verticalAlign=middle;whiteSpace=wrap;rounded=0;" vertex="1" parent="1">
          <mxGeometry x="130" y="255" width="20" height="30" as="geometry" />
        </mxCell>
        <mxCell id="AeLRqA_ZkPdadpYVqA0--73" value="" style="edgeStyle=orthogonalEdgeStyle;rounded=0;orthogonalLoop=1;jettySize=auto;html=1;" edge="1" parent="1" source="AeLRqA_ZkPdadpYVqA0--74" target="AeLRqA_ZkPdadpYVqA0--78">
          <mxGeometry relative="1" as="geometry" />
        </mxCell>
        <mxCell id="AeLRqA_ZkPdadpYVqA0--74" value="LSTM&lt;br&gt;h&lt;sup style=&quot;border-color: var(--border-color); text-align: start;&quot;&gt;2&lt;/sup&gt;&lt;sub style=&quot;border-color: var(--border-color); text-align: start;&quot;&gt;1&lt;/sub&gt;" style="rounded=0;whiteSpace=wrap;html=1;fillColor=#d5e8d4;strokeColor=#82b366;" vertex="1" parent="1">
          <mxGeometry x="507" y="270" width="40" height="80" as="geometry" />
        </mxCell>
        <mxCell id="AeLRqA_ZkPdadpYVqA0--93" style="edgeStyle=orthogonalEdgeStyle;rounded=0;orthogonalLoop=1;jettySize=auto;html=1;exitX=1;exitY=0.5;exitDx=0;exitDy=0;entryX=0.5;entryY=1;entryDx=0;entryDy=0;" edge="1" parent="1" source="AeLRqA_ZkPdadpYVqA0--76" target="AeLRqA_ZkPdadpYVqA0--89">
          <mxGeometry relative="1" as="geometry" />
        </mxCell>
        <mxCell id="AeLRqA_ZkPdadpYVqA0--76" value="&lt;font style=&quot;font-size: 12px;&quot;&gt;Input&lt;br&gt;[u&lt;sub style=&quot;text-align: start;&quot;&gt;2&lt;/sub&gt;&lt;span style=&quot;text-align: start;&quot;&gt;,-x&lt;/span&gt;&lt;sub style=&quot;text-align: start;&quot;&gt;2&lt;/sub&gt;&lt;span style=&quot;text-align: start;&quot;&gt;,&lt;br&gt;-u&lt;/span&gt;&lt;sub style=&quot;text-align: start;&quot;&gt;2&lt;/sub&gt;&lt;/font&gt;&lt;font style=&quot;font-size: 12px;&quot;&gt;]&lt;/font&gt;" style="rounded=0;whiteSpace=wrap;html=1;fillColor=#ffe6cc;strokeColor=#d79b00;" vertex="1" parent="1">
          <mxGeometry x="367" y="360" width="47" height="60" as="geometry" />
        </mxCell>
        <mxCell id="AeLRqA_ZkPdadpYVqA0--77" value="" style="edgeStyle=orthogonalEdgeStyle;rounded=0;orthogonalLoop=1;jettySize=auto;html=1;" edge="1" parent="1" source="AeLRqA_ZkPdadpYVqA0--78" target="AeLRqA_ZkPdadpYVqA0--83">
          <mxGeometry relative="1" as="geometry" />
        </mxCell>
        <mxCell id="AeLRqA_ZkPdadpYVqA0--78" value="Dense&lt;br&gt;d&lt;sup style=&quot;border-color: var(--border-color); text-align: start;&quot;&gt;2&lt;/sup&gt;&lt;sub style=&quot;border-color: var(--border-color); text-align: start;&quot;&gt;1&lt;/sub&gt;" style="rounded=0;whiteSpace=wrap;html=1;fillColor=#d5e8d4;strokeColor=#82b366;" vertex="1" parent="1">
          <mxGeometry x="577" y="270" width="40" height="80" as="geometry" />
        </mxCell>
        <mxCell id="AeLRqA_ZkPdadpYVqA0--80" value="Dense&lt;br&gt;y&lt;sub style=&quot;border-color: var(--border-color); text-align: start;&quot;&gt;2&lt;/sub&gt;" style="rounded=0;whiteSpace=wrap;html=1;fillColor=#dae8fc;strokeColor=#6c8ebf;" vertex="1" parent="1">
          <mxGeometry x="690" y="270" width="40" height="80" as="geometry" />
        </mxCell>
        <mxCell id="AeLRqA_ZkPdadpYVqA0--82" value="" style="endArrow=classic;html=1;rounded=0;exitX=0.5;exitY=0;exitDx=0;exitDy=0;entryX=0.5;entryY=0;entryDx=0;entryDy=0;" edge="1" parent="1" source="AeLRqA_ZkPdadpYVqA0--89" target="AeLRqA_ZkPdadpYVqA0--83">
          <mxGeometry width="50" height="50" relative="1" as="geometry">
            <mxPoint x="487" y="310" as="sourcePoint" />
            <mxPoint x="667" y="300" as="targetPoint" />
            <Array as="points">
              <mxPoint x="447" y="240" />
              <mxPoint x="650" y="240" />
            </Array>
          </mxGeometry>
        </mxCell>
        <mxCell id="_eFMWPL8dM4-BxjzLq-a-7" style="edgeStyle=orthogonalEdgeStyle;rounded=0;orthogonalLoop=1;jettySize=auto;html=1;exitX=1;exitY=0.5;exitDx=0;exitDy=0;" edge="1" parent="1" source="AeLRqA_ZkPdadpYVqA0--83" target="AeLRqA_ZkPdadpYVqA0--80">
          <mxGeometry relative="1" as="geometry" />
        </mxCell>
        <mxCell id="AeLRqA_ZkPdadpYVqA0--83" value="+" style="ellipse;whiteSpace=wrap;html=1;aspect=fixed;fillColor=#fff2cc;strokeColor=#d6b656;" vertex="1" parent="1">
          <mxGeometry x="640" y="300" width="20" height="20" as="geometry" />
        </mxCell>
        <mxCell id="AeLRqA_ZkPdadpYVqA0--94" value="&lt;p style=&quot;margin: 0cm; text-align: start;&quot; class=&quot;MsoNormal&quot;&gt;&lt;b&gt;x&lt;/b&gt;&lt;sub&gt;2&lt;/sub&gt;&lt;sub style=&quot;font-family: Calibri, sans-serif;&quot;&gt;&lt;span lang=&quot;EN-US&quot;&gt;&lt;/span&gt;&lt;/sub&gt;&lt;/p&gt;" style="text;html=1;strokeColor=none;fillColor=none;align=center;verticalAlign=middle;whiteSpace=wrap;rounded=0;" vertex="1" parent="1">
          <mxGeometry x="450" y="270" width="20" height="30" as="geometry" />
        </mxCell>
        <mxCell id="AeLRqA_ZkPdadpYVqA0--98" value="&lt;font style=&quot;font-size: 12px;&quot;&gt;Input&lt;br&gt;[x&lt;sub style=&quot;text-align: start;&quot;&gt;1&lt;/sub&gt;&lt;span style=&quot;text-align: start;&quot;&gt;,u&lt;/span&gt;&lt;sub style=&quot;text-align: start;&quot;&gt;1&lt;/sub&gt;&lt;span style=&quot;text-align: start;&quot;&gt;,&lt;br&gt;-x&lt;/span&gt;&lt;sub style=&quot;text-align: start;&quot;&gt;1&lt;/sub&gt;&lt;span style=&quot;text-align: start;&quot;&gt;,-u&lt;/span&gt;&lt;sub style=&quot;text-align: start;&quot;&gt;1&lt;/sub&gt;&lt;/font&gt;&lt;font style=&quot;font-size: 12px;&quot;&gt;]&lt;/font&gt;" style="rounded=0;whiteSpace=wrap;html=1;fillColor=#ffe6cc;strokeColor=#d79b00;" vertex="1" parent="1">
          <mxGeometry x="107" y="280" width="50" height="60" as="geometry" />
        </mxCell>
        <mxCell id="AeLRqA_ZkPdadpYVqA0--99" value="" style="shape=curlyBracket;whiteSpace=wrap;html=1;rounded=1;flipH=1;labelPosition=right;verticalLabelPosition=middle;align=left;verticalAlign=middle;rotation=90;" vertex="1" parent="1">
          <mxGeometry x="247" y="310" width="20" height="260" as="geometry" />
        </mxCell>
        <mxCell id="AeLRqA_ZkPdadpYVqA0--100" value="" style="shape=curlyBracket;whiteSpace=wrap;html=1;rounded=1;flipH=1;labelPosition=right;verticalLabelPosition=middle;align=left;verticalAlign=middle;rotation=90;" vertex="1" parent="1">
          <mxGeometry x="545" y="285" width="20" height="310" as="geometry" />
        </mxCell>
        <mxCell id="AeLRqA_ZkPdadpYVqA0--101" value="Horizon 1" style="text;html=1;align=center;verticalAlign=middle;resizable=0;points=[];autosize=1;strokeColor=none;fillColor=none;" vertex="1" parent="1">
          <mxGeometry x="222" y="448" width="70" height="30" as="geometry" />
        </mxCell>
        <mxCell id="AeLRqA_ZkPdadpYVqA0--102" value="Horizon 2" style="text;html=1;align=center;verticalAlign=middle;resizable=0;points=[];autosize=1;strokeColor=none;fillColor=none;" vertex="1" parent="1">
          <mxGeometry x="520" y="448" width="70" height="30" as="geometry" />
        </mxCell>
        <mxCell id="_eFMWPL8dM4-BxjzLq-a-1" value="&lt;b style=&quot;border-color: var(--border-color); caret-color: rgb(0, 0, 0); color: rgb(0, 0, 0); font-family: Helvetica; font-size: 12px; font-style: normal; font-variant-caps: normal; letter-spacing: normal; text-indent: 0px; text-transform: none; word-spacing: 0px; -webkit-text-stroke-width: 0px; text-decoration: none; text-align: start;&quot;&gt;W&lt;/b&gt;&lt;sub style=&quot;border-color: var(--border-color); caret-color: rgb(0, 0, 0); color: rgb(0, 0, 0); font-family: Helvetica; font-style: normal; font-variant-caps: normal; font-weight: 400; letter-spacing: normal; text-indent: 0px; text-transform: none; word-spacing: 0px; -webkit-text-stroke-width: 0px; text-decoration: none; text-align: start;&quot;&gt;1&lt;/sub&gt;&lt;sup style=&quot;border-color: var(--border-color); caret-color: rgb(0, 0, 0); color: rgb(0, 0, 0); font-family: Helvetica; font-style: normal; font-variant-caps: normal; font-weight: 400; letter-spacing: normal; text-indent: 0px; text-transform: none; word-spacing: 0px; -webkit-text-stroke-width: 0px; text-decoration: none; text-align: start;&quot;&gt;(h)&lt;/sup&gt;" style="text;whiteSpace=wrap;html=1;" vertex="1" parent="1">
          <mxGeometry x="157" y="285" width="30" height="30" as="geometry" />
        </mxCell>
        <mxCell id="_eFMWPL8dM4-BxjzLq-a-2" value="&lt;p style=&quot;margin: 0cm; text-align: start;&quot; class=&quot;MsoNormal&quot;&gt;W&lt;sub&gt;1&lt;/sub&gt;&lt;sup&gt;(d)&lt;font face=&quot;Calibri, sans-serif&quot;&gt;&lt;/font&gt;&lt;/sup&gt;&lt;/p&gt;" style="text;html=1;strokeColor=none;fillColor=none;align=center;verticalAlign=middle;whiteSpace=wrap;rounded=0;" vertex="1" parent="1">
          <mxGeometry x="230.00000000000003" y="290" width="30" height="20" as="geometry" />
        </mxCell>
        <mxCell id="_eFMWPL8dM4-BxjzLq-a-3" value="&lt;p style=&quot;margin: 0cm; text-align: start;&quot; class=&quot;MsoNormal&quot;&gt;W&lt;sub&gt;2&lt;/sub&gt;&lt;sup&gt;(d)&lt;font face=&quot;Calibri, sans-serif&quot;&gt;&lt;/font&gt;&lt;/sup&gt;&lt;/p&gt;" style="text;html=1;strokeColor=none;fillColor=none;align=center;verticalAlign=middle;whiteSpace=wrap;rounded=0;" vertex="1" parent="1">
          <mxGeometry x="337" y="290" width="30" height="20" as="geometry" />
        </mxCell>
        <mxCell id="_eFMWPL8dM4-BxjzLq-a-4" value="&lt;b style=&quot;border-color: var(--border-color); caret-color: rgb(0, 0, 0); color: rgb(0, 0, 0); font-family: Helvetica; font-size: 12px; font-style: normal; font-variant-caps: normal; letter-spacing: normal; text-indent: 0px; text-transform: none; word-spacing: 0px; -webkit-text-stroke-width: 0px; text-decoration: none; text-align: start;&quot;&gt;W&lt;/b&gt;&lt;sub style=&quot;border-color: var(--border-color); caret-color: rgb(0, 0, 0); color: rgb(0, 0, 0); font-family: Helvetica; font-style: normal; font-variant-caps: normal; font-weight: 400; letter-spacing: normal; text-indent: 0px; text-transform: none; word-spacing: 0px; -webkit-text-stroke-width: 0px; text-decoration: none; text-align: start;&quot;&gt;1&lt;/sub&gt;&lt;sup style=&quot;border-color: var(--border-color); caret-color: rgb(0, 0, 0); color: rgb(0, 0, 0); font-family: Helvetica; font-style: normal; font-variant-caps: normal; font-weight: 400; letter-spacing: normal; text-indent: 0px; text-transform: none; word-spacing: 0px; -webkit-text-stroke-width: 0px; text-decoration: none; text-align: start;&quot;&gt;(h)&lt;/sup&gt;" style="text;whiteSpace=wrap;html=1;" vertex="1" parent="1">
          <mxGeometry x="470" y="280" width="30" height="30" as="geometry" />
        </mxCell>
        <mxCell id="_eFMWPL8dM4-BxjzLq-a-5" value="&lt;p style=&quot;margin: 0cm; text-align: start;&quot; class=&quot;MsoNormal&quot;&gt;W&lt;sub&gt;1&lt;/sub&gt;&lt;sup&gt;(d)&lt;font face=&quot;Calibri, sans-serif&quot;&gt;&lt;/font&gt;&lt;/sup&gt;&lt;/p&gt;" style="text;html=1;strokeColor=none;fillColor=none;align=center;verticalAlign=middle;whiteSpace=wrap;rounded=0;" vertex="1" parent="1">
          <mxGeometry x="547" y="290" width="30" height="20" as="geometry" />
        </mxCell>
        <mxCell id="_eFMWPL8dM4-BxjzLq-a-6" value="&lt;p style=&quot;margin: 0cm; text-align: start;&quot; class=&quot;MsoNormal&quot;&gt;W&lt;sub&gt;2&lt;/sub&gt;&lt;sup&gt;(d)&lt;font face=&quot;Calibri, sans-serif&quot;&gt;&lt;/font&gt;&lt;/sup&gt;&lt;/p&gt;" style="text;html=1;strokeColor=none;fillColor=none;align=center;verticalAlign=middle;whiteSpace=wrap;rounded=0;" vertex="1" parent="1">
          <mxGeometry x="660" y="290" width="30" height="20" as="geometry" />
        </mxCell>
      </root>
    </mxGraphModel>
  </diagram>
</mxfile>
